<?xml version="1.0" encoding="utf-8"?>
<!-- Generator: Adobe Illustrator 25.0.1, SVG Export Plug-In . SVG Version: 6.00 Build 0)  -->
<svg version="1.1" id="Layer_2" xmlns="http://www.w3.org/2000/svg" xmlns:xlink="http://www.w3.org/1999/xlink" x="0px" y="0px"
	 viewBox="0 0 1366 768" style="enable-background:new 0 0 1366 768;" xml:space="preserve">
<style type="text/css">
	.st0{fill:#FFFFFF;}
	.st1{fill:none;stroke:#000000;stroke-miterlimit:10;}
	.st2{fill:#FFFFFF;stroke:#000000;stroke-miterlimit:10;}
</style>
<g id="Layer_4">
	<rect x="-1.33" y="495.99" class="st0" width="1367.15" height="272.01"/>
</g>
<g id="Layer_2_1_">
	<line class="st1" x1="1161.92" y1="509.6" x2="1365.82" y2="509.6"/>
	<line class="st1" x1="963.72" y1="509.6" x2="1141.18" y2="509.6"/>
	<line class="st1" x1="934.05" y1="509.6" x2="948.92" y2="509.6"/>
	<line class="st1" x1="729.88" y1="509.6" x2="919.13" y2="509.6"/>
	<line class="st1" x1="498.28" y1="509.6" x2="709.16" y2="509.6"/>
	<line class="st1" x1="426.83" y1="509.6" x2="472.45" y2="509.6"/>
	<line class="st1" x1="214.1" y1="509.6" x2="402.47" y2="509.6"/>
	<line class="st1" x1="-1.33" y1="515.29" x2="1365.82" y2="515.29"/>
	<line class="st1" x1="-1.33" y1="523.5" x2="1365.82" y2="523.5"/>
	<line class="st1" x1="-1.33" y1="530.71" x2="1365.82" y2="530.71"/>
	<line class="st1" x1="-1.33" y1="495.99" x2="1365.82" y2="495.99"/>
	<polyline class="st2" points="-1.33,509.6 165.21,509.6 165.01,509.6 165.21,509.6 165.49,509.53 	"/>
</g>
<g id="Layer_3">
	<polyline class="st2" points="165.6,509.51 165.21,509.6 223.91,495.99 	"/>
	<polyline class="st2" points="268.28,495.99 214.1,509.6 214.69,509.6 	"/>
	<polyline class="st2" points="463.17,495.99 427.44,509.37 426.74,509.63 427.21,509.63 	"/>
	<polyline class="st2" points="528.92,495.99 499.35,509.16 498.28,509.63 499.21,509.6 	"/>
	<polyline class="st2" points="740.47,495.99 729.88,509.63 730.53,509.63 	"/>
	<polyline class="st2" points="942.97,495.99 948.5,508.64 948.92,509.6 947.93,509.6 	"/>
	<path class="st2" d="M1339.76,495.99c8.75,3.02,17.49,6.04,26.24,9.06"/>
	<polyline class="st2" points="401.97,509.6 402.47,509.6 441.4,495.99 	"/>
	<polyline class="st2" points="471.99,509.6 472.45,509.63 505.81,495.99 	"/>
	<polyline class="st2" points="708.42,509.63 709.16,509.6 721.78,495.99 	"/>
	<polyline class="st2" points="918.54,509.6 919.13,509.63 915.1,495.99 	"/>
	<polyline class="st2" points="934.84,509.6 934.05,509.6 928.92,495.99 	"/>
	<polyline class="st2" points="964.54,509.63 963.72,509.63 963.3,508.84 963.72,509.63 956.52,495.99 	"/>
	<polyline class="st2" points="1140.5,509.66 1141.18,509.66 1120.35,496.05 	"/>
	<polyline class="st2" points="1162.51,509.6 1161.92,509.63 1137.99,495.99 	"/>
</g>
</svg>
